<?xml version="1.0" standalone="no"?>
<!DOCTYPE svg PUBLIC "-//W3C//DTD SVG 20010904//EN"
 "http://www.w3.org/TR/2001/REC-SVG-20010904/DTD/svg10.dtd">
<svg version="1.0" xmlns="http://www.w3.org/2000/svg"
 width="700.000000pt" height="700.000000pt" viewBox="0 0 700.000000 700.000000"
 preserveAspectRatio="xMidYMid meet">
<metadata>
Created by potrace 1.14, written by Peter Selinger 2001-2017
</metadata>
<g transform="translate(0.000000,700.000000) scale(0.100000,-0.100000)"
fill="#000000" stroke="none">
<path d="M1247 5753 c-4 -3 -7 -512 -7 -1130 l0 -1123 253 0 253 0 12 -137
c20 -234 75 -431 176 -634 217 -435 609 -763 1076 -898 215 -63 226 -63 818
-68 l542 -4 0 870 0 871 -1310 0 -1310 0 0 48 c0 129 35 334 82 482 212 664
786 1133 1480 1209 54 6 118 11 143 11 l45 0 0 255 0 255 -1123 0 c-618 0
-1127 -3 -1130 -7z"/>
</g>
</svg>
